<?xml version="1.0" encoding="UTF-8"?>
<svg width="50px" height="50px" viewBox="0 0 50 50" version="1.1" xmlns="http://www.w3.org/2000/svg" xmlns:xlink="http://www.w3.org/1999/xlink">
    <!-- Generator: Sketch 42 (36781) - http://www.bohemiancoding.com/sketch -->
    <title>score-0</title>
    <desc>Created with Sketch.</desc>
    <defs></defs>
    <g id="Page-1" stroke="none" stroke-width="1" fill="none" fill-rule="evenodd">
        <g id="Artboard-6" transform="translate(-24.000000, -8.000000)" fill="#43A047">
            <path d="M49,8 C35.2066667,8 24,19.2066667 24,33 C24,46.7933333 35.2066667,58 49,58 C62.7933333,58 74,46.7933333 74,33 C74,19.2066667 62.7933333,8 49,8 Z M49,10.2222222 C61.5925926,10.2222222 71.7777778,20.4074074 71.7777778,33 C71.7777778,45.5925926 61.5925926,55.7777778 49,55.7777778 C36.4074074,55.7777778 26.2222222,45.5925926 26.2222222,33 C26.2222222,20.4074074 36.4074074,10.2222222 49,10.2222222 Z M39.5555556,22.4444444 C37.7155556,22.4444444 36.2222222,23.9377778 36.2222222,25.7777778 C36.2222222,27.6177778 37.7155556,29.1111111 39.5555556,29.1111111 C41.3955556,29.1111111 42.8888889,27.6177778 42.8888889,25.7777778 C42.8888889,23.9377778 41.3955556,22.4444444 39.5555556,22.4444444 Z M58.4444444,22.4444444 C56.6044444,22.4444444 55.1111111,23.9377778 55.1111111,25.7777778 C55.1111111,27.6177778 56.6044444,29.1111111 58.4444444,29.1111111 C60.2844444,29.1111111 61.7777778,27.6177778 61.7777778,25.7777778 C61.7777778,23.9377778 60.2844444,22.4444444 58.4444444,22.4444444 Z M49,49.2889652 C43.5518519,49.2889652 38.7422222,46.4504467 35.8577778,42.1363726 C35.4525926,41.626743 35.5681481,40.8830393 36.1096296,40.5215578 C36.6474074,40.1600763 37.3822222,40.3363726 37.6977778,40.90378 C40.2007407,44.6445208 44.3244444,47.066743 49,47.066743 C53.6755556,47.066743 57.7992593,44.6445208 60.3022222,40.90378 C60.6177778,40.3363726 61.3525926,40.1600763 61.8903704,40.5215578 C62.4318519,40.8830393 62.5474074,41.626743 62.1422222,42.1363726 C59.2577778,46.4504467 54.4481481,49.2889652 49,49.2889652 Z" id="score"></path>
        </g>
    </g>
</svg>