<?xml version="1.0" encoding="UTF-8"?>
<svg width="50px" height="50px" viewBox="0 0 50 50" version="1.1" xmlns="http://www.w3.org/2000/svg" xmlns:xlink="http://www.w3.org/1999/xlink">
    <!-- Generator: Sketch 42 (36781) - http://www.bohemiancoding.com/sketch -->
    <title>score-3</title>
    <desc>Created with Sketch.</desc>
    <defs></defs>
    <g id="Page-1" stroke="none" stroke-width="1" fill="none" fill-rule="evenodd">
        <g id="Artboard-6" transform="translate(-325.000000, -8.000000)" fill="#E2C42D">
            <path d="M350,8 C336.206667,8 325,19.2066667 325,33 C325,46.7933333 336.206667,58 350,58 C363.793333,58 375,46.7933333 375,33 C375,19.2066667 363.793333,8 350,8 Z M350,10.2222222 C362.592593,10.2222222 372.777778,20.4074074 372.777778,33 C372.777778,45.5925926 362.592593,55.7777778 350,55.7777778 C337.407407,55.7777778 327.222222,45.5925926 327.222222,33 C327.222222,20.4074074 337.407407,10.2222222 350,10.2222222 Z M340.555556,22.4444444 C338.715556,22.4444444 337.222222,23.9377778 337.222222,25.7777778 C337.222222,27.6177778 338.715556,29.1111111 340.555556,29.1111111 C342.395556,29.1111111 343.888889,27.6177778 343.888889,25.7777778 C343.888889,23.9377778 342.395556,22.4444444 340.555556,22.4444444 Z M359.444444,22.4444444 C361.284444,22.4444444 362.777778,23.9377778 362.777778,25.7777778 C362.777778,27.6177778 361.284444,29.1111111 359.444444,29.1111111 C357.604444,29.1111111 356.111111,27.6177778 356.111111,25.7777778 C356.111111,23.9377778 357.604444,22.4444444 359.444444,22.4444444 Z M336,44 C336,43.4477153 336.439813,43 336.996535,43 L363.003465,43 C363.553836,43 364,43.4438648 364,44 C364,44.5522847 363.560187,45 363.003465,45 L336.996535,45 C336.446164,45 336,44.5561352 336,44 Z" id="score-3"></path>
        </g>
    </g>
</svg>