<?xml version="1.0" encoding="UTF-8"?>
<svg width="100px" height="100px" viewBox="0 0 100 100" version="1.1" xmlns="http://www.w3.org/2000/svg" xmlns:xlink="http://www.w3.org/1999/xlink">
    <!-- Generator: Sketch 42 (36781) - http://www.bohemiancoding.com/sketch -->
    <title>Artboard 3</title>
    <desc>Created with Sketch.</desc>
    <defs></defs>
    <g id="Page-1" stroke="none" stroke-width="1" fill="none" fill-rule="evenodd">
        <g id="Artboard-3" fill="#43A047">
            <path d="M97.1543537,7.02507566 L97.1543537,7.02507566 C96.6344909,7.10214834 96.1629874,7.34998991 95.8093598,7.7338421 C83.5245785,20.5913793 54.8867871,51.2995545 41.75874,65.0774302 L24.1544322,49.528394 C23.2159589,48.6896618 21.7757576,48.7788244 20.9430704,49.7172976 C20.1118944,50.6618158 20.1995457,52.0959722 21.1440639,52.9286595 L40.4122348,69.9299868 C41.3280397,70.7445393 42.7274378,70.6795564 43.5646587,69.7879313 C56.1924891,56.5767665 86.5409918,23.9916447 99.102328,10.8499965 C100.613557,9.29796422 99.2972766,6.71829615 97.1543537,7.02507566 Z M45.8315024,9.3281888 C40.2596007,9.26320595 34.6574744,10.2364375 29.2910999,12.2675294 C5.90180719,21.1157758 -5.90995942,47.3204883 2.93828694,70.709781 C11.7880445,94.0975625 37.9927571,105.91084 61.3805385,97.0610828 C84.7698313,88.2128364 96.5468396,62.0081239 87.697082,38.6188311 C87.3192747,37.3493987 85.9440563,36.6648119 84.7048484,37.1438715 C83.4701742,37.6214199 82.9034633,39.0555764 83.4822641,40.2479361 C91.4645762,61.3462055 80.849703,84.8291944 59.7514336,92.8115065 C38.6531642,100.792307 15.135417,90.1789454 7.15310488,69.080676 C-0.827695973,47.9824066 9.7871772,24.4994177 30.8854466,16.5171056 C43.7656522,11.6479255 58.2220697,13.5717201 69.3507608,21.6885316 C71.7415252,23.2299853 74.213896,19.870523 72.0422598,18.0404245 C64.3213904,12.4095849 55.1240501,9.43397484 45.8315024,9.3281888 Z" id="Page-1"></path>
        </g>
    </g>
</svg>