<?xml version="1.0" encoding="UTF-8"?>
<svg width="100px" height="100px" viewBox="0 0 100 100" version="1.1" xmlns="http://www.w3.org/2000/svg" xmlns:xlink="http://www.w3.org/1999/xlink">
    <!-- Generator: Sketch 42 (36781) - http://www.bohemiancoding.com/sketch -->
    <title>Page 1</title>
    <desc>Created with Sketch.</desc>
    <defs></defs>
    <g id="Page-1" stroke="none" stroke-width="1" fill="none" fill-rule="evenodd">
        <g id="Artboard-5" fill="#43A047">
            <path d="M50,0 C22.4133333,0 0,22.4133333 0,50 C0,77.5866667 22.4133333,100 50,100 C77.5866667,100 100,77.5866667 100,50 C100,22.4133333 77.5866667,0 50,0 Z M50,4.44444444 C75.1851852,4.44444444 95.5555556,24.8148148 95.5555556,50 C95.5555556,75.1851852 75.1851852,95.5555556 50,95.5555556 C24.8148148,95.5555556 4.44444444,75.1851852 4.44444444,50 C4.44444444,24.8148148 24.8148148,4.44444444 50,4.44444444 Z M31.1111111,28.8888889 C27.4311111,28.8888889 24.4444444,31.8755556 24.4444444,35.5555556 C24.4444444,39.2355556 27.4311111,42.2222222 31.1111111,42.2222222 C34.7911111,42.2222222 37.7777778,39.2355556 37.7777778,35.5555556 C37.7777778,31.8755556 34.7911111,28.8888889 31.1111111,28.8888889 Z M68.8888889,28.8888889 C65.2088889,28.8888889 62.2222222,31.8755556 62.2222222,35.5555556 C62.2222222,39.2355556 65.2088889,42.2222222 68.8888889,42.2222222 C72.5688889,42.2222222 75.5555556,39.2355556 75.5555556,35.5555556 C75.5555556,31.8755556 72.5688889,28.8888889 68.8888889,28.8888889 Z M50,82.5779304 C39.1037037,82.5779304 29.4844444,76.9008934 23.7155556,68.2727452 C22.9051852,67.253486 23.1362963,65.7660786 24.2192593,65.0431156 C25.2948148,64.3201526 26.7644444,64.6727452 27.3955556,65.8075601 C32.4014815,73.2890415 40.6488889,78.133486 50,78.133486 C59.3511111,78.133486 67.5985185,73.2890415 72.6044444,65.8075601 C73.2355556,64.6727452 74.7051852,64.3201526 75.7807407,65.0431156 C76.8637037,65.7660786 77.0948148,67.253486 76.2844444,68.2727452 C70.5155556,76.9008934 60.8962963,82.5779304 50,82.5779304 Z" id="Page-1"></path>
        </g>
    </g>
</svg>