<?xml version="1.0" encoding="UTF-8"?>
<svg width="100px" height="100px" viewBox="0 0 100 100" version="1.1" xmlns="http://www.w3.org/2000/svg" xmlns:xlink="http://www.w3.org/1999/xlink">
    <!-- Generator: Sketch 42 (36781) - http://www.bohemiancoding.com/sketch -->
    <title>Page 1</title>
    <desc>Created with Sketch.</desc>
    <defs></defs>
    <g id="Page-1" stroke="none" stroke-width="1" fill="none" fill-rule="evenodd">
        <g id="Artboard-5-Copy" fill="#D32F2F">
            <path d="M50,0 C22.4133333,0 0,22.4133333 0,50 C0,77.5866667 22.4133333,100 50,100 C77.5866667,100 100,77.5866667 100,50 C100,22.4133333 77.5866667,0 50,0 Z M50,4.44444444 C75.1851852,4.44444444 95.5555556,24.8148148 95.5555556,50 C95.5555556,75.1851852 75.1851852,95.5555556 50,95.5555556 C24.8148148,95.5555556 4.44444444,75.1851852 4.44444444,50 C4.44444444,24.8148148 24.8148148,4.44444444 50,4.44444444 Z M31.1111111,28.8888889 C27.4311111,28.8888889 24.4444444,31.8755556 24.4444444,35.5555556 C24.4444444,39.2355556 27.4311111,42.2222222 31.1111111,42.2222222 C34.7911111,42.2222222 37.7777778,39.2355556 37.7777778,35.5555556 C37.7777778,31.8755556 34.7911111,28.8888889 31.1111111,28.8888889 Z M68.8888889,28.8888889 C65.2088889,28.8888889 62.2222222,31.8755556 62.2222222,35.5555556 C62.2222222,39.2355556 65.2088889,42.2222222 68.8888889,42.2222222 C72.5688889,42.2222222 75.5555556,39.2355556 75.5555556,35.5555556 C75.5555556,31.8755556 72.5688889,28.8888889 68.8888889,28.8888889 Z M50,56.6666667 C39.1037037,56.6666667 29.4844444,62.3437037 23.7155556,70.9718519 C22.9051852,71.9911111 23.1362963,73.4785185 24.2192593,74.2014815 C25.2948148,74.9244444 26.7644444,74.5718519 27.3955556,73.437037 C32.4014815,65.9555556 40.6488889,61.1111111 50,61.1111111 C59.3511111,61.1111111 67.5985185,65.9555556 72.6044444,73.437037 C73.2355556,74.5718519 74.7051852,74.9244444 75.7807407,74.2014815 C76.8637037,73.4785185 77.0948148,71.9911111 76.2844444,70.9718519 C70.5155556,62.3437037 60.8962963,56.6666667 50,56.6666667 Z" id="Page-1"></path>
        </g>
    </g>
</svg>