<?xml version="1.0" encoding="UTF-8"?>
<svg width="50px" height="50px" viewBox="0 0 50 50" version="1.1" xmlns="http://www.w3.org/2000/svg" xmlns:xlink="http://www.w3.org/1999/xlink">
    <!-- Generator: Sketch 42 (36781) - http://www.bohemiancoding.com/sketch -->
    <title>score-4</title>
    <desc>Created with Sketch.</desc>
    <defs></defs>
    <g id="Page-1" stroke="none" stroke-width="1" fill="none" fill-rule="evenodd">
        <g id="Artboard-6" transform="translate(-425.000000, -8.000000)" fill="#F7AE29">
            <path d="M450,8 C436.206667,8 425,19.2066667 425,33 C425,46.7933333 436.206667,58 450,58 C463.793333,58 475,46.7933333 475,33 C475,19.2066667 463.793333,8 450,8 Z M450,10.2222222 C462.592593,10.2222222 472.777778,20.4074074 472.777778,33 C472.777778,45.5925926 462.592593,55.7777778 450,55.7777778 C437.407407,55.7777778 427.222222,45.5925926 427.222222,33 C427.222222,20.4074074 437.407407,10.2222222 450,10.2222222 Z M440.555556,22.4444444 C438.715556,22.4444444 437.222222,23.9377778 437.222222,25.7777778 C437.222222,27.6177778 438.715556,29.1111111 440.555556,29.1111111 C442.395556,29.1111111 443.888889,27.6177778 443.888889,25.7777778 C443.888889,23.9377778 442.395556,22.4444444 440.555556,22.4444444 Z M459.444444,22.4444444 C457.604444,22.4444444 456.111111,23.9377778 456.111111,25.7777778 C456.111111,27.6177778 457.604444,29.1111111 459.444444,29.1111111 C461.284444,29.1111111 462.777778,27.6177778 462.777778,25.7777778 C462.777778,23.9377778 461.284444,22.4444444 459.444444,22.4444444 Z M450.384579,40.0046653 C444.936431,40.0046653 440.126801,39.7000303 437.242357,44.0141044 C436.837172,44.5237341 436.952727,45.2674378 437.494209,45.6289192 C438.031986,45.9904007 438.766801,45.8141044 439.082357,45.246697 C441.58532,41.5059563 445.709023,42.2268875 450.384579,42.2268875 C455.060135,42.2268875 459.183838,41.5059563 461.686801,45.246697 C462.002357,45.8141044 462.737172,45.9904007 463.274949,45.6289192 C463.816431,45.2674378 463.931986,44.5237341 463.526801,44.0141044 C460.642357,39.7000303 455.832727,40.0046653 450.384579,40.0046653 Z" id="score-4"></path>
        </g>
    </g>
</svg>