<?xml version="1.0" encoding="UTF-8"?>
<svg width="50px" height="50px" viewBox="0 0 50 50" version="1.1" xmlns="http://www.w3.org/2000/svg" xmlns:xlink="http://www.w3.org/1999/xlink">
    <!-- Generator: Sketch 42 (36781) - http://www.bohemiancoding.com/sketch -->
    <title>score-5</title>
    <desc>Created with Sketch.</desc>
    <defs></defs>
    <g id="Page-1" stroke="none" stroke-width="1" fill="none" fill-rule="evenodd">
        <g id="Artboard-6" transform="translate(-525.000000, -8.000000)" fill="#E97D2B">
            <path d="M550,8 C536.206667,8 525,19.2066667 525,33 C525,46.7933333 536.206667,58 550,58 C563.793333,58 575,46.7933333 575,33 C575,19.2066667 563.793333,8 550,8 Z M550,10.2222222 C562.592593,10.2222222 572.777778,20.4074074 572.777778,33 C572.777778,45.5925926 562.592593,55.7777778 550,55.7777778 C537.407407,55.7777778 527.222222,45.5925926 527.222222,33 C527.222222,20.4074074 537.407407,10.2222222 550,10.2222222 Z M540.555556,22.4444444 C538.715556,22.4444444 537.222222,23.9377778 537.222222,25.7777778 C537.222222,27.6177778 538.715556,29.1111111 540.555556,29.1111111 C542.395556,29.1111111 543.888889,27.6177778 543.888889,25.7777778 C543.888889,23.9377778 542.395556,22.4444444 540.555556,22.4444444 Z M559.444444,22.4444444 C557.604444,22.4444444 556.111111,23.9377778 556.111111,25.7777778 C556.111111,27.6177778 557.604444,29.1111111 559.444444,29.1111111 C561.284444,29.1111111 562.777778,27.6177778 562.777778,25.7777778 C562.777778,23.9377778 561.284444,22.4444444 559.444444,22.4444444 Z M550,38.6134246 C544.551852,38.6134246 539.742222,40.1718519 536.857778,44.4859259 C536.452593,44.9955556 536.568148,45.7392593 537.10963,46.1007407 C537.647407,46.4622222 538.382222,46.2859259 538.697778,45.7185185 C541.200741,41.9777778 545.324444,40.8356468 550,40.8356468 C554.675556,40.8356468 558.799259,41.9777778 561.302222,45.7185185 C561.617778,46.2859259 562.352593,46.4622222 562.89037,46.1007407 C563.431852,45.7392593 563.547407,44.9955556 563.142222,44.4859259 C560.257778,40.1718519 555.448148,38.6134246 550,38.6134246 Z" id="score-5"></path>
        </g>
    </g>
</svg>