<?xml version="1.0" encoding="UTF-8"?>
<svg width="50px" height="50px" viewBox="0 0 50 50" version="1.1" xmlns="http://www.w3.org/2000/svg" xmlns:xlink="http://www.w3.org/1999/xlink">
    <!-- Generator: Sketch 42 (36781) - http://www.bohemiancoding.com/sketch -->
    <title>score-6</title>
    <desc>Created with Sketch.</desc>
    <defs></defs>
    <g id="Page-1" stroke="none" stroke-width="1" fill="none" fill-rule="evenodd">
        <g id="Artboard-6" transform="translate(-625.000000, -8.000000)" fill="#D32F2F">
            <path d="M650,8 C636.206667,8 625,19.2066667 625,33 C625,46.7933333 636.206667,58 650,58 C663.793333,58 675,46.7933333 675,33 C675,19.2066667 663.793333,8 650,8 Z M650,10.2222222 C662.592593,10.2222222 672.777778,20.4074074 672.777778,33 C672.777778,45.5925926 662.592593,55.7777778 650,55.7777778 C637.407407,55.7777778 627.222222,45.5925926 627.222222,33 C627.222222,20.4074074 637.407407,10.2222222 650,10.2222222 Z M640.555556,22.4444444 C638.715556,22.4444444 637.222222,23.9377778 637.222222,25.7777778 C637.222222,27.6177778 638.715556,29.1111111 640.555556,29.1111111 C642.395556,29.1111111 643.888889,27.6177778 643.888889,25.7777778 C643.888889,23.9377778 642.395556,22.4444444 640.555556,22.4444444 Z M659.444444,22.4444444 C657.604444,22.4444444 656.111111,23.9377778 656.111111,25.7777778 C656.111111,27.6177778 657.604444,29.1111111 659.444444,29.1111111 C661.284444,29.1111111 662.777778,27.6177778 662.777778,25.7777778 C662.777778,23.9377778 661.284444,22.4444444 659.444444,22.4444444 Z M650,37.3333333 C644.551852,37.3333333 639.742222,40.1718519 636.857778,44.4859259 C636.452593,44.9955556 636.568148,45.7392593 637.10963,46.1007407 C637.647407,46.4622222 638.382222,46.2859259 638.697778,45.7185185 C641.200741,41.9777778 645.324444,39.5555556 650,39.5555556 C654.675556,39.5555556 658.799259,41.9777778 661.302222,45.7185185 C661.617778,46.2859259 662.352593,46.4622222 662.89037,46.1007407 C663.431852,45.7392593 663.547407,44.9955556 663.142222,44.4859259 C660.257778,40.1718519 655.448148,37.3333333 650,37.3333333 Z" id="score-6"></path>
        </g>
    </g>
</svg>