<?xml version="1.0" encoding="UTF-8"?>
<svg width="100px" height="100px" viewBox="0 0 100 100" version="1.1" xmlns="http://www.w3.org/2000/svg" xmlns:xlink="http://www.w3.org/1999/xlink">
    <!-- Generator: Sketch 42 (36781) - http://www.bohemiancoding.com/sketch -->
    <title>Artboard 3 Copy 2</title>
    <desc>Created with Sketch.</desc>
    <defs></defs>
    <g id="Page-1" stroke="none" stroke-width="1" fill="none" fill-rule="evenodd">
        <g id="Artboard-3-Copy-2">
            <circle id="Oval" stroke="#D32F2F" stroke-width="4" cx="45" cy="55" r="43"></circle>
            <path d="M43.5,31.9972916 C43.5,30.8942179 44.3877296,30 45.5,30 C46.6045695,30 47.5,30.8915398 47.5,31.9972916 L47.5,68.0027084 C47.5,69.1057821 46.6122704,70 45.5,70 C44.3954305,70 43.5,69.1084602 43.5,68.0027084 L43.5,31.9972916 Z M43,76.5 C43,75.1192881 44.1096621,74 45.5,74 C46.8807119,74 48,75.1096621 48,76.5 C48,77.8807119 46.8903379,79 45.5,79 C44.1192881,79 43,77.8903379 43,76.5 Z" id="Combined-Shape" fill="#D32F2F"></path>
        </g>
    </g>
</svg>