<?xml version="1.0" encoding="UTF-8"?>
<svg width="50px" height="50px" viewBox="0 0 50 50" version="1.1" xmlns="http://www.w3.org/2000/svg" xmlns:xlink="http://www.w3.org/1999/xlink">
    <!-- Generator: Sketch 42 (36781) - http://www.bohemiancoding.com/sketch -->
    <title>score-2</title>
    <desc>Created with Sketch.</desc>
    <defs></defs>
    <g id="Page-1" stroke="none" stroke-width="1" fill="none" fill-rule="evenodd">
        <g id="Artboard-6" transform="translate(-225.000000, -8.000000)" fill="#E2C42D">
            <path d="M250,8 C236.206667,8 225,19.2066667 225,33 C225,46.7933333 236.206667,58 250,58 C263.793333,58 275,46.7933333 275,33 C275,19.2066667 263.793333,8 250,8 Z M250,10.2222222 C262.592593,10.2222222 272.777778,20.4074074 272.777778,33 C272.777778,45.5925926 262.592593,55.7777778 250,55.7777778 C237.407407,55.7777778 227.222222,45.5925926 227.222222,33 C227.222222,20.4074074 237.407407,10.2222222 250,10.2222222 Z M240.555556,22.4444444 C238.715556,22.4444444 237.222222,23.9377778 237.222222,25.7777778 C237.222222,27.6177778 238.715556,29.1111111 240.555556,29.1111111 C242.395556,29.1111111 243.888889,27.6177778 243.888889,25.7777778 C243.888889,23.9377778 242.395556,22.4444444 240.555556,22.4444444 Z M259.444444,22.4444444 C257.604444,22.4444444 256.111111,23.9377778 256.111111,25.7777778 C256.111111,27.6177778 257.604444,29.1111111 259.444444,29.1111111 C261.284444,29.1111111 262.777778,27.6177778 262.777778,25.7777778 C262.777778,23.9377778 261.284444,22.4444444 259.444444,22.4444444 Z M250.384579,49.8124784 C244.936431,49.8124784 240.126801,50.1171134 237.242357,45.8030393 C236.837172,45.2934097 236.952727,44.549706 237.494209,44.1882245 C238.031986,43.826743 238.766801,44.0030393 239.082357,44.5704467 C241.58532,48.3111874 245.709023,47.5902562 250.384579,47.5902562 C255.060135,47.5902562 259.183838,48.3111874 261.686801,44.5704467 C262.002357,44.0030393 262.737172,43.826743 263.274949,44.1882245 C263.816431,44.549706 263.931986,45.2934097 263.526801,45.8030393 C260.642357,50.1171134 255.832727,49.8124784 250.384579,49.8124784 Z" id="score-2"></path>
        </g>
    </g>
</svg>