<?xml version="1.0" encoding="UTF-8"?>
<svg width="50px" height="50px" viewBox="0 0 50 50" version="1.1" xmlns="http://www.w3.org/2000/svg" xmlns:xlink="http://www.w3.org/1999/xlink">
    <!-- Generator: Sketch 42 (36781) - http://www.bohemiancoding.com/sketch -->
    <title>score-1</title>
    <desc>Created with Sketch.</desc>
    <defs></defs>
    <g id="Page-1" stroke="none" stroke-width="1" fill="none" fill-rule="evenodd">
        <g id="Artboard-6" transform="translate(-125.000000, -8.000000)" fill="#A1B537">
            <path d="M150,8 C136.206667,8 125,19.2066667 125,33 C125,46.7933333 136.206667,58 150,58 C163.793333,58 175,46.7933333 175,33 C175,19.2066667 163.793333,8 150,8 Z M150,10.2222222 C162.592593,10.2222222 172.777778,20.4074074 172.777778,33 C172.777778,45.5925926 162.592593,55.7777778 150,55.7777778 C137.407407,55.7777778 127.222222,45.5925926 127.222222,33 C127.222222,20.4074074 137.407407,10.2222222 150,10.2222222 Z M140.555556,22.4444444 C138.715556,22.4444444 137.222222,23.9377778 137.222222,25.7777778 C137.222222,27.6177778 138.715556,29.1111111 140.555556,29.1111111 C142.395556,29.1111111 143.888889,27.6177778 143.888889,25.7777778 C143.888889,23.9377778 142.395556,22.4444444 140.555556,22.4444444 Z M159.444444,22.4444444 C157.604444,22.4444444 156.111111,23.9377778 156.111111,25.7777778 C156.111111,27.6177778 157.604444,29.1111111 159.444444,29.1111111 C161.284444,29.1111111 162.777778,27.6177778 162.777778,25.7777778 C162.777778,23.9377778 161.284444,22.4444444 159.444444,22.4444444 Z M150,50.2889652 C144.551852,50.2889652 139.742222,48.7305379 136.857778,44.4164639 C136.452593,43.9068342 136.568148,43.1631305 137.10963,42.8016491 C137.647407,42.4401676 138.382222,42.6164639 138.697778,43.1838713 C141.200741,46.924612 145.324444,48.066743 150,48.066743 C154.675556,48.066743 158.799259,46.924612 161.302222,43.1838713 C161.617778,42.6164639 162.352593,42.4401676 162.89037,42.8016491 C163.431852,43.1631305 163.547407,43.9068342 163.142222,44.4164639 C160.257778,48.7305379 155.448148,50.2889652 150,50.2889652 Z" id="score-1"></path>
        </g>
    </g>
</svg>